HIERARCHY
ROOT Hips
{
	OFFSET 0.000000 0.000000 0.000000
	CHANNELS 6 Xposition Yposition Zposition Zrotation Yrotation Xrotation 
	JOINT LHipJoint
	{
		OFFSET 0.000000 0.000000 0.000000
		CHANNELS 3 Zrotation Yrotation Xrotation
		JOINT LeftUpLeg
		{
			OFFSET 1.363060 -1.794630 0.839290
			CHANNELS 3 Zrotation Yrotation Xrotation
			JOINT LeftLeg
			{
				OFFSET 2.448110 -6.726130 0.000000
				CHANNELS 3 Zrotation Yrotation Xrotation
				JOINT LeftFoot
				{
					OFFSET 2.562200 -7.039590 0.000000
					CHANNELS 3 Zrotation Yrotation Xrotation
					JOINT LeftToeBase
					{
						OFFSET 0.157640 -0.433110 2.322550
						CHANNELS 3 Zrotation Yrotation Xrotation
						End Site
						{
							OFFSET 0.000000 0.000000 0.000000
						}
					}
				}
			}
		}
	}
	JOINT RHipJoint
	{
		OFFSET 0.000000 0.000000 0.000000
		CHANNELS 3 Zrotation Yrotation Xrotation
		JOINT RightUpLeg
		{
			OFFSET -1.305520 -1.794630 0.839290
			CHANNELS 3 Zrotation Yrotation Xrotation
			JOINT RightLeg
			{
				OFFSET -2.542530 -6.985550 0.000000
				CHANNELS 3 Zrotation Yrotation Xrotation
				JOINT RightFoot
				{
					OFFSET -2.568260 -7.056230 0.000000
					CHANNELS 3 Zrotation Yrotation Xrotation
					JOINT RightToeBase
					{
						OFFSET -0.164730 -0.452590 2.363150
						CHANNELS 3 Zrotation Yrotation Xrotation
						End Site
						{
							OFFSET 0.000000 0.000000 0.000000
						}
					}
				}
			}
		}
	}
	JOINT LowerBack
	{
		OFFSET 0.000000 0.000000 0.000000
		CHANNELS 3 Zrotation Yrotation Xrotation
		JOINT Spine
		{
			OFFSET 0.028270 2.035590 -0.193380
			CHANNELS 3 Zrotation Yrotation Xrotation
			JOINT Spine1
			{
				OFFSET 0.056720 2.048850 -0.042750
				CHANNELS 3 Zrotation Yrotation Xrotation
				JOINT Neck
				{
					OFFSET 0.000000 0.000000 0.000000
					CHANNELS 3 Zrotation Yrotation Xrotation
					JOINT Neck1
					{
						OFFSET -0.054170 1.746240 0.172020
						CHANNELS 3 Zrotation Yrotation Xrotation
						JOINT Head
						{
							OFFSET 0.104070 1.761360 -0.123970
							CHANNELS 3 Zrotation Yrotation Xrotation
							End Site
							{
								OFFSET 0.000000 0.000000 0.000000
							}
						}
					}
				}
				JOINT LeftShoulder
				{
					OFFSET 0.000000 0.000000 0.000000
					CHANNELS 3 Zrotation Yrotation Xrotation
					JOINT LeftArm
					{
						OFFSET 3.362410 1.200890 -0.311210
						CHANNELS 3 Zrotation Yrotation Xrotation
						JOINT LeftForeArm
						{
							OFFSET 4.983000 -0.000000 -0.000000
							CHANNELS 3 Zrotation Yrotation Xrotation
							JOINT LeftHand
							{
								OFFSET 3.483560 -0.000000 -0.000000
								CHANNELS 3 Zrotation Yrotation Xrotation
								JOINT LeftFingerBase
								{
									OFFSET 0.000000 0.000000 0.000000
									CHANNELS 3 Zrotation Yrotation Xrotation
									JOINT LeftHandIndex1
									{
										OFFSET 0.715260 -0.000000 -0.000000
										CHANNELS 3 Zrotation Yrotation Xrotation
										End Site
										{
											OFFSET 0.000000 0.000000 0.000000
										}
									}
								}
								JOINT LThumb
								{
									OFFSET 0.000000 0.000000 0.000000
									CHANNELS 3 Zrotation Yrotation Xrotation
									End Site
									{
										OFFSET 0.000000 0.000000 0.000000
									}
								}
							}
						}
					}
				}
				JOINT RightShoulder
				{
					OFFSET 0.000000 0.000000 0.000000
					CHANNELS 3 Zrotation Yrotation Xrotation
					JOINT RightArm
					{
						OFFSET -3.136600 1.374050 -0.404650
						CHANNELS 3 Zrotation Yrotation Xrotation
						JOINT RightForeArm
						{
							OFFSET -5.241900 -0.000000 -0.000000
							CHANNELS 3 Zrotation Yrotation Xrotation
							JOINT RightHand
							{
								OFFSET -3.444170 -0.000000 -0.000000
								CHANNELS 3 Zrotation Yrotation Xrotation
								JOINT RightFingerBase
								{
									OFFSET 0.000000 0.000000 0.000000
									CHANNELS 3 Zrotation Yrotation Xrotation
									JOINT RightHandIndex1
									{
										OFFSET -0.622530 -0.000000 -0.000000
										CHANNELS 3 Zrotation Yrotation Xrotation
										End Site
										{
											OFFSET 0.000000 0.000000 0.000000
										}
									}
								}
								JOINT RThumb
								{
									OFFSET 0.000000 0.000000 0.000000
									CHANNELS 3 Zrotation Yrotation Xrotation
									End Site
									{
										OFFSET 0.000000 0.000000 0.000000
									}
								}
							}
						}
					}
				}
			}
		}
	}
}
MOTION
Frames: 10
Frame Time: 0.008333
14.238493 18.051494 -4.249168 176.638502 -17.626850 -164.178255 -7.414676 -1.458742 2.487223 -4.710219 -0.056226 4.406256 0.084987 6.807787 13.957883 -4.923544 31.866685 22.742287 8.703900 16.613300 55.060300 7.292336 2.952084 0.082729 14.380130 -5.273890 -19.574800 -0.063071 -8.153780 19.664768 2.005251 -9.969943 -6.741505 -0.648500 -5.151200 14.340400 -0.871789 -3.374705 -5.242608 0.952520 -4.864864 -2.456778 3.444552 -2.700293 9.026660 -11.151659 -4.125221 -11.707191 10.514934 -5.031443 -0.563458 2.624300 -2.697800 2.325900 -0.745621 -5.762246 4.255991 81.801355 -55.442292 -112.794620 7.934677 -26.045791 -1.779765 -2.986355 -2.616091 25.445174 51.681440 42.298582 44.078800 -7.125000 0.000000 0.000000 91.819300 85.016300 86.826100 5.258873 5.221992 2.933589 -60.075356 52.195615 -81.428744 -45.695987 51.842270 -28.806766 1.705259 -1.692940 6.226211 -64.333876 45.991841 -58.249900 7.125000 0.000000 0.000000 -11.426100 37.496000 -16.171300 
14.243437 18.052703 -4.252354 176.668111 -17.616045 -164.063622 -7.417972 -1.454810 2.489867 -4.634088 0.022027 4.289678 0.071418 6.776230 13.874457 -5.028201 31.993642 22.481839 8.780700 16.664500 55.328600 7.295707 2.961603 0.069567 14.420028 -5.186353 -19.644745 -0.066667 -8.155988 19.687010 1.978952 -9.877305 -6.753727 -0.710700 -5.388000 15.018600 -0.741249 -3.363891 -5.152706 0.950149 -4.854889 -2.448347 3.435350 -2.695574 9.006555 -11.318813 -4.190417 -11.514931 10.549446 -5.124852 -0.730463 2.685000 -2.753100 2.260700 -0.766222 -5.725760 4.266962 81.304429 -55.255249 -111.089728 8.406806 -26.537566 -2.015400 -3.015514 -2.621563 24.044156 53.172554 42.694435 45.895800 -7.125000 0.000000 0.000000 98.937100 -84.552300 -104.382200 5.274275 5.156488 2.904209 -60.162850 52.200839 -81.968659 -48.740256 53.015813 -31.434333 1.701267 -1.597648 5.584601 -65.578397 45.830226 -59.603100 7.125000 0.000000 0.000000 -12.121600 38.146900 -17.195900 
14.248491 18.053032 -4.255650 176.605642 -17.541149 -163.898658 -7.430218 -1.454105 2.492586 -4.687880 0.066079 4.179007 0.055666 6.738928 13.767652 -5.066481 32.072304 22.418094 8.778800 16.663200 55.321800 7.294626 2.975166 0.039259 14.380971 -5.105328 -19.809466 -0.069015 -8.163959 19.717740 2.105237 -10.304191 -6.641051 -0.541400 -4.714300 13.095500 -0.732468 -3.315340 -5.105744 0.924923 -4.779113 -2.435832 3.432375 -2.666722 9.007667 -11.959073 -4.241975 -11.543769 10.817315 -5.090356 -0.379467 2.921600 -2.710300 2.435200 -0.785161 -5.664287 4.197830 81.461505 -55.153320 -111.301367 8.488680 -26.666783 -2.055735 -3.015328 -2.603541 23.928074 53.530687 42.528033 46.203700 -7.125000 0.000000 0.000000 98.974400 -84.336900 -104.638100 5.270716 5.110129 2.932842 -60.474623 52.213512 -83.035177 -51.611983 54.065067 -33.966601 1.706268 -1.521377 4.833218 -66.821597 45.839373 -61.062100 7.125000 0.000000 0.000000 -12.724900 38.957900 -18.092900 
14.252995 18.053362 -4.257958 176.565506 -17.497292 -163.772216 -7.438739 -1.452804 2.492558 -4.730877 0.034980 4.128547 0.041437 6.705977 13.669670 -5.081689 32.125428 22.415256 8.788700 16.669800 55.356600 7.296718 2.985405 0.011964 14.340684 -4.978603 -19.916399 -0.069644 -8.170786 19.742811 2.196366 -10.612361 -6.604556 -0.442500 -4.268100 11.832300 -0.722745 -3.234643 -5.002517 0.892222 -4.659838 -2.410323 3.383350 -2.606652 8.965980 -11.580866 -4.333265 -11.399196 10.532550 -5.281088 -0.463721 2.734100 -2.816500 2.359400 -0.780481 -5.637560 4.131314 81.915615 -55.110169 -112.107223 8.512474 -26.790993 -2.066127 -3.000352 -2.587827 24.174634 53.594185 42.400441 46.196200 -7.125000 0.000000 0.000000 98.110800 -84.281300 -103.840000 5.288956 5.070469 2.921698 -60.454219 52.205619 -83.620069 -54.725546 55.118891 -36.736561 1.727714 -1.429959 3.595539 -68.057588 45.713145 -62.483900 7.125000 0.000000 0.000000 -13.423300 39.686900 -19.126600 
14.260466 18.056109 -4.260375 176.503626 -17.503936 -163.630477 -7.448422 -1.449319 2.489226 -4.750293 -0.011311 4.047275 0.026002 6.669863 13.559234 -5.090533 32.180602 22.443666 8.832500 16.698700 55.509100 7.315326 2.988305 -0.003555 14.115449 -4.413992 -19.741318 -0.071590 -8.174822 19.786125 2.041174 -10.070322 -6.897041 -0.822200 -5.785500 16.163200 -0.683451 -3.250186 -4.892137 0.851066 -4.667899 -2.391634 3.292315 -2.605069 8.949463 -11.617301 -4.327190 -11.264387 10.446746 -5.289997 -0.646965 2.730700 -2.832400 2.281900 -0.795776 -5.610437 4.130742 81.503306 -54.901511 -110.945208 8.916841 -27.199984 -2.280316 -2.991848 -2.589290 23.530642 53.900310 42.701714 46.661500 -7.125000 0.000000 0.000000 101.961900 -84.215700 -107.707500 5.293220 5.024054 2.890534 -60.537469 52.253264 -84.249412 -58.120013 56.227368 -39.782257 1.757956 -1.336124 1.948741 -69.132019 45.726933 -63.783600 7.125000 0.000000 0.000000 -13.971300 40.419800 -19.941200 
14.266179 18.057097 -4.264659 176.406092 -17.486973 -163.463896 -7.456934 -1.452557 2.485898 -4.818455 -0.020748 3.932304 0.016185 6.638495 13.470026 -5.043019 32.152320 22.615258 8.764500 16.653800 55.272200 7.311148 3.004845 -0.032178 14.146855 -4.606661 -20.038320 -0.070481 -8.177385 19.786319 2.267264 -10.840931 -6.674243 -0.505900 -4.559700 12.656700 -0.678073 -3.257878 -4.821571 0.803795 -4.663004 -2.379778 3.205039 -2.599203 8.928070 -11.735122 -4.376277 -11.190439 10.484535 -5.346912 -0.709325 2.778500 -2.862600 2.272200 -0.808826 -5.582853 4.112671 81.232828 -54.711695 -110.186018 9.217774 -27.504159 -2.441225 -2.986976 -2.591149 23.092991 54.151265 42.961588 47.049300 -7.125000 0.000000 0.000000 105.248100 -84.150700 -110.994400 5.291492 4.991929 2.855890 -60.612869 52.338886 -85.080042 -61.598302 57.323817 -42.936197 1.780560 -1.264544 0.284711 -69.799795 46.236565 -64.768500 7.125000 0.000000 0.000000 -14.004500 41.207100 -20.001200 
14.271123 18.059734 -4.267955 176.362380 -17.437110 -163.288846 -7.469889 -1.457971 2.481632 -4.845046 -0.038967 3.788019 0.009940 6.619568 13.419693 -5.025631 32.136523 22.691578 8.683400 16.599600 54.988700 7.314451 3.014929 -0.052786 14.112579 -4.521398 -20.175416 -0.070089 -8.169550 19.777645 2.311654 -10.987359 -6.591213 -0.470100 -4.397300 12.197200 -0.691133 -3.149247 -4.731638 0.781201 -4.512609 -2.383105 3.208343 -2.522907 8.802770 -11.726353 -4.565751 -11.090822 10.573713 -5.603633 -0.693259 2.790100 -2.987700 2.297300 -0.804844 -5.572504 4.058430 81.686020 -54.666780 -110.889784 9.247881 -27.642464 -2.456142 -2.972643 -2.592024 23.162811 54.294242 42.978952 47.204400 -7.125000 0.000000 0.000000 106.179900 -84.101000 -111.953900 5.295070 4.997007 2.770376 -60.321555 52.446173 -85.553634 -65.043095 58.357838 -46.063982 1.789498 -1.212109 -1.209260 -70.493132 46.936045 -65.847400 7.125000 0.000000 0.000000 -13.896400 42.142800 -19.851800 
14.278484 18.063030 -4.269054 176.337668 -17.418873 -163.122000 -7.483801 -1.463709 2.475081 -4.825306 -0.029643 3.600542 0.013865 6.618754 13.420005 -4.969710 32.080042 22.885927 8.704600 16.613800 55.062800 7.316296 3.024919 -0.070461 14.107264 -4.439905 -20.298524 -0.066665 -8.147184 19.731008 2.329345 -11.043240 -6.476256 -0.445400 -4.282200 11.872000 -0.721006 -3.123601 -4.603574 0.791411 -4.477605 -2.383758 3.335224 -2.518470 8.735321 -12.481900 -4.661267 -11.061728 10.980250 -5.629509 -0.675622 3.100000 -2.990800 2.387600 -0.809499 -5.549174 4.017211 81.608521 -54.485038 -110.804343 9.398183 -27.814169 -2.545106 -2.972990 -2.586959 22.994208 54.477918 43.060067 47.439700 -7.125000 0.000000 0.000000 107.539100 -84.021500 -113.357100 5.283179 4.973882 2.728785 -60.588140 52.648158 -86.612011 -68.488647 59.434084 -49.169447 1.799543 -1.167054 -2.702823 -71.204606 47.556975 -66.919200 7.125000 0.000000 0.000000 -13.824800 43.036800 -19.750700 
14.284747 18.066875 -4.269823 176.326864 -17.457892 -162.981047 -7.486751 -1.464870 2.465677 -4.770162 -0.008463 3.416596 0.021693 6.619035 13.422917 -4.857554 31.951519 23.231104 8.704400 16.613700 55.062100 7.326416 3.036774 -0.086451 14.106582 -4.336554 -20.375217 -0.059632 -8.123292 19.677161 2.342779 -11.085158 -6.453919 -0.466500 -4.381000 12.151000 -0.640066 -3.097276 -4.471425 0.753801 -4.434380 -2.363119 3.234349 -2.491409 8.689262 -12.117685 -4.639899 -11.009381 10.650974 -5.661515 -0.899860 2.916900 -3.025200 2.274400 -0.794190 -5.531917 3.947005 81.788708 -54.327515 -111.046823 9.468205 -27.908510 -2.580811 -2.960123 -2.579115 22.981174 54.450723 42.978463 47.361000 -7.125000 0.000000 0.000000 106.562100 -84.019700 -112.407900 5.291056 4.932748 2.760312 -61.064878 52.936725 -88.347558 -71.801404 60.490513 -52.152632 1.808854 -1.128130 -3.945168 -71.537425 48.023857 -67.463200 7.125000 0.000000 0.000000 -13.667600 43.549700 -19.521400 
14.289800 18.069292 -4.269823 176.377345 -17.540765 -162.894025 -7.479960 -1.458189 2.460336 -4.643768 -0.083576 3.297706 0.021988 6.613410 13.409614 -4.844939 31.928481 23.296983 8.687400 16.602300 55.002500 7.343769 3.041002 -0.099507 14.142905 -4.119005 -20.377367 -0.051235 -8.109366 19.643006 2.385607 -11.230544 -6.515295 -0.519600 -4.619900 12.827600 -0.380905 -3.068636 -4.305910 0.691159 -4.392109 -2.349555 2.907866 -2.431388 8.496930 -11.717621 -4.604501 -10.718673 10.404460 -5.706458 -1.172941 2.759800 -3.066300 2.119300 -0.780948 -5.581893 3.930279 82.097035 -54.222305 -111.420034 9.442818 -27.914857 -2.557144 -2.947630 -2.572512 23.081960 54.417826 42.827891 47.246400 -7.125000 0.000000 0.000000 105.054000 -84.010000 -110.946300 5.270823 4.998834 2.567329 -60.279292 52.967604 -88.364635 -75.611203 61.569441 -55.492407 1.806121 -1.057257 -5.799725 -71.942428 48.200901 -67.993100 7.125000 0.000000 0.000000 -13.698900 43.946800 -19.566000 
